# xmcd
# 
# Track frame offsets:
#     150
#     19724
#     42363
#     59520
#     81468
#     96603
#     114360
#     133560
#     151187
#     173043
#     193160
#     222886
#     242930
#     261875
#     281220
#     307853
#     327275
# 
# Disc length: 4733
# 
# Revision: 1
# Processed by: cddbd v1.5.2PL0 Copyright (c) Steve Scherf et al.
# Submitted via: fre:ac v1.0.31
# 
DISCID=f8127b11
DTITLE=Gary Moore - Memorial Collection
DYEAR=2011
DGENRE=Heavy Metal
TTITLE0=Back On The Streets
TTITLE1=Track Nine
TTITLE2=Don't Believe A Word
TTITLE3=Hurricane
TTITLE4=Parisienne Walkways
TTITLE5=Spanish Guitar
TTITLE6=Don't Take Me For A Loser
TTITLE7=Always Gonna Love You
TTITLE8=Falling In Love With You
TTITLE9=Hiroshima
TTITLE10=Empty Rooms
TTITLE11=Hold On To Love
TTITLE12=Run For Cover
TTITLE13=Out In The Fields
TTITLE14=The Loner
TTITLE15=After The War
TTITLE16=Still Got The Blues
EXTD=
EXTT0=
EXTT1=
EXTT2=
EXTT3=
EXTT4=
EXTT5=
EXTT6=
EXTT7=
EXTT8=
EXTT9=
EXTT10=
EXTT11=
EXTT12=
EXTT13=
EXTT14=
EXTT15=
EXTT16=
PLAYORDER=
